name analog
datacolumns 19
datarows 35
range 0.777 0.794
endheader
time	ground_force_vx	ground_force_vy	ground_force_vz	ground_force_px	ground_force_py	ground_force_pz	l_ground_force_vx	l_ground_force_vy	l_ground_force_vz	l_ground_force_px	l_ground_force_py	l_ground_force_pz	ground_torque_x	ground_torque_y	ground_torque_z	l_ground_torque_x	l_ground_torque_y	l_ground_torque_z
0.777	-0.0	-0.0	-0.0	-0.0	-0.0	-0.0	2.106593608856201	2.275141954421997	-637.72314453125	-0.0	-0.0	-0.0	-0.0	-0.0	-0.0	185605.3125	-14308.783203125	-242.74835205078125
0.7775	-0.0	-0.0	-0.0	-0.0	-0.0	-0.0	1.1307111978530884	1.877185583114624	-635.7996215820312	-0.0	-0.0	-0.0	-0.0	-0.0	-0.0	184536.234375	-13796.4111328125	-391.8850708007813
0.778	-0.0	-0.0	-0.0	-0.0	-0.0	-0.0	-0.6870799660682678	1.5014686584472656	-634.8533325195312	-0.0	-0.0	-0.0	-0.0	-0.0	-0.0	184342.765625	-13881.4228515625	-547.458740234375
0.7785	-0.0	-0.0	-0.0	-0.0	-0.0	-0.0	-1.8875675201416016	1.8979352712631223	-632.8333740234375	-0.0	-0.0	-0.0	-0.0	-0.0	-0.0	184233.71875	-13382.7109375	-957.6904907226562
0.779	-0.0	-0.0	-0.0	-0.0	-0.0	-0.0	-3.371009826660156	2.959899425506592	-631.3555908203125	-0.0	-0.0	-0.0	-0.0	-0.0	-0.0	183813.03125	-13375.826171875	-1299.2587890625
0.7795	-0.0	-0.0	-0.0	-0.0	-0.0	-0.0	-4.547069072723389	4.085516452789307	-630.7373657226562	-0.0	-0.0	-0.0	-0.0	-0.0	-0.0	183535.328125	-13150.0498046875	-1781.1810302734375
0.78	-0.0	-0.0	-0.0	-0.0	-0.0	-0.0	-5.319826602935791	5.079901218414307	-629.2612915039062	-0.0	-0.0	-0.0	-0.0	-0.0	-0.0	182919.125	-12992.244140625	-2033.0653076171875
0.7805	-0.0	-0.0	-0.0	-0.0	-0.0	-0.0	-5.877861976623535	5.125733852386475	-626.6368408203125	-0.0	-0.0	-0.0	-0.0	-0.0	-0.0	182301.25	-12978.7939453125	-2012.35888671875
0.781	-0.0	-0.0	-0.0	-0.0	-0.0	-0.0	-5.92059850692749	5.560896396636963	-623.2223510742188	-0.0	-0.0	-0.0	-0.0	-0.0	-0.0	181714.65625	-12820.4365234375	-2035.351318359375
0.7815	-0.0	-0.0	-0.0	-0.0	-0.0	-0.0	-6.036003112792969	6.2938337326049805	-619.6532592773438	-0.0	-0.0	-0.0	-0.0	-0.0	-0.0	180879.28125	-12900.9462890625	-1968.2437744140625
0.782	-0.0	-0.0	-0.0	-0.0	-0.0	-0.0	-6.452714920043945	6.205588817596436	-617.9071655273438	-0.0	-0.0	-0.0	-0.0	-0.0	-0.0	180274.390625	-13040.7265625	-2145.241943359375
0.7825	-0.0	-0.0	-0.0	-0.0	-0.0	-0.0	-6.7420196533203125	6.424347877502441	-618.08984375	-0.0	-0.0	-0.0	-0.0	-0.0	-0.0	179918.25	-12823.947265625	-2359.3291015625
0.783	-0.0	-0.0	-0.0	-0.0	-0.0	-0.0	-6.657830238342285	6.935503005981445	-618.2557983398438	-0.0	-0.0	-0.0	-0.0	-0.0	-0.0	180397.71875	-12996.68359375	-2265.234375
0.7835	-0.0	-0.0	-0.0	-0.0	-0.0	-0.0	-5.836357116699219	6.949321269989014	-620.1473388671875	-0.0	-0.0	-0.0	-0.0	-0.0	-0.0	180863.96875	-13342.80078125	-2021.1558837890625
0.784	-0.0	-0.0	-0.0	-0.0	-0.0	-0.0	-4.594596862792969	7.000759124755859	-621.8590087890625	-0.0	-0.0	-0.0	-0.0	-0.0	-0.0	181647.125	-13983.896484375	-1804.8553466796875
0.7845	-0.0	-0.0	-0.0	-0.0	-0.0	-0.0	-3.5538079738616943	6.930575847625732	-624.7962646484375	-0.0	-0.0	-0.0	-0.0	-0.0	-0.0	182594.578125	-14286.482421875	-1610.4908447265625
0.785	-0.0	-0.0	-0.0	-0.0	-0.0	-0.0	-2.9925692081451416	6.494471073150635	-627.8451538085938	-0.0	-0.0	-0.0	-0.0	-0.0	-0.0	183302.5625	-14518.11328125	-1558.790283203125
0.7855	-0.0	-0.0	-0.0	-0.0	-0.0	-0.0	-2.696775197982788	6.011784553527832	-630.0791625976562	-0.0	-0.0	-0.0	-0.0	-0.0	-0.0	184004.25	-14842.4072265625	-1529.081298828125
0.786	-0.0	-0.0	-0.0	-0.0	-0.0	-0.0	-2.460163116455078	5.564266204833984	-631.0350341796875	-0.0	-0.0	-0.0	-0.0	-0.0	-0.0	184443.34375	-15205.40625	-1432.1483154296875
0.7865	-0.0	-0.0	-0.0	-0.0	-0.0	-0.0	-1.9516372680664065	5.098958969116211	-632.2879638671875	-0.0	-0.0	-0.0	-0.0	-0.0	-0.0	184738.8125	-15432.474609375	-1423.9669189453125
0.787	-0.0	-0.0	-0.0	-0.0	-0.0	-0.0	-1.7332528829574585	3.909923553466797	-633.4955444335938	-0.0	-0.0	-0.0	-0.0	-0.0	-0.0	184914.828125	-15625.7802734375	-1526.8031005859375
0.7875	-0.0	-0.0	-0.0	-0.0	-0.0	-0.0	-1.9037346839904783	3.8623080253601074	-633.3331298828125	-0.0	-0.0	-0.0	-0.0	-0.0	-0.0	184970.703125	-15660.2080078125	-1621.513671875
0.788	-0.0	-0.0	-0.0	-0.0	-0.0	-0.0	-2.9274559020996094	3.203490257263184	-633.2008666992188	-0.0	-0.0	-0.0	-0.0	-0.0	-0.0	184832.359375	-15474.8564453125	-2018.423095703125
0.7885	-0.0	-0.0	-0.0	-0.0	-0.0	-0.0	-3.14542293548584	3.0193278789520264	-631.0765380859375	-0.0	-0.0	-0.0	-0.0	-0.0	-0.0	184655.515625	-15365.3046875	-2174.998046875
0.789	-0.0	-0.0	-0.0	-0.0	-0.0	-0.0	-3.1531903743743896	2.6094298362731934	-629.2023315429688	-0.0	-0.0	-0.0	-0.0	-0.0	-0.0	184443.03125	-15472.513671875	-2242.538330078125
0.7895	-0.0	-0.0	-0.0	-0.0	-0.0	-0.0	-2.7582345008850098	2.3928496837615967	-628.2191162109375	-0.0	-0.0	-0.0	-0.0	-0.0	-0.0	183968.390625	-15503.9169921875	-2183.03173828125
0.79	-0.0	-0.0	-0.0	-0.0	-0.0	-0.0	-2.419496297836304	2.232240438461304	-624.5079345703125	-0.0	-0.0	-0.0	-0.0	-0.0	-0.0	183536.390625	-15597.1953125	-2212.547607421875
0.7905	-0.0	-0.0	-0.0	-0.0	-0.0	-0.0	-3.169219255447388	1.6781120300292969	-624.7281494140625	-0.0	-0.0	-0.0	-0.0	-0.0	-0.0	183398.921875	-15696.853515625	-2320.840576171875
0.791	-0.0	-0.0	-0.0	-0.0	-0.0	-0.0	-3.765683889389038	2.263021945953369	-624.69287109375	-0.0	-0.0	-0.0	-0.0	-0.0	-0.0	183785.515625	-15681.8583984375	-2671.8671875
0.7915	-0.0	-0.0	-0.0	-0.0	-0.0	-0.0	-4.799740314483643	2.9052987098693848	-626.497314453125	-0.0	-0.0	-0.0	-0.0	-0.0	-0.0	184557.03125	-15808.9736328125	-3230.987060546875
0.792	-0.0	-0.0	-0.0	-0.0	-0.0	-0.0	-5.041547775268555	3.974475860595703	-630.1218872070312	-0.0	-0.0	-0.0	-0.0	-0.0	-0.0	185806.5625	-16487.544921875	-3456.82958984375
0.7925	-0.0	-0.0	-0.0	-0.0	-0.0	-0.0	-4.322174549102783	5.274755477905273	-633.361083984375	-0.0	-0.0	-0.0	-0.0	-0.0	-0.0	187174.390625	-17057.919921875	-3246.67041015625
0.793	-0.0	-0.0	-0.0	-0.0	-0.0	-0.0	-2.4446496963500977	6.889091491699219	-637.0070190429688	-0.0	-0.0	-0.0	-0.0	-0.0	-0.0	188587.890625	-17725.43359375	-3022.308349609375
0.7935	-0.0	-0.0	-0.0	-0.0	-0.0	-0.0	-1.0749902725219729	8.086641311645508	-641.0835571289062	-0.0	-0.0	-0.0	-0.0	-0.0	-0.0	189863.46875	-18272.17578125	-2723.009521484375
0.794	-0.0	-0.0	-0.0	-0.0	-0.0	-0.0	-0.7345564365386963	8.238677978515625	-644.9385375976562	-0.0	-0.0	-0.0	-0.0	-0.0	-0.0	190972.25	-18517.470703125	-2621.896484375
